# Blender v2.79 (sub 0) OBJ File: 'rockpack.blend'
# www.blender.org
mtllib rock3.mtl
o Cube.002_Cube
v 7.634435 0.641767 -13.373864
v 7.528674 0.914332 -13.381085
v 7.291149 0.878787 -13.370956
v 7.289517 0.643411 -13.361323
v 7.270764 0.939342 -12.919549
v 7.257951 0.928236 -12.922273
v 7.257917 0.637652 -12.936997
v 7.719888 0.963510 -13.076132
v 7.576205 0.971066 -13.281309
v 7.278320 0.962767 -13.194177
v 7.259978 0.951010 -12.948319
v 7.277193 0.950154 -12.924782
v 7.491265 0.951178 -12.881760
v 7.286519 0.949892 -12.916357
v 7.786491 0.637901 -13.154507
v 7.611462 0.811755 -12.868549
v 7.620046 0.634890 -12.876060
v 7.728169 0.953972 -13.069208
v 7.712224 0.961845 -13.042849
v 7.714899 0.962092 -13.047333
vn -0.0365 -0.0406 -0.9985
vn 0.8581 0.0199 0.5131
vn -0.0142 0.9988 0.0467
vn -0.1514 0.8885 -0.4331
vn -0.0053 -0.9999 -0.0140
vn 0.4961 0.4952 0.7132
vn -0.9972 0.0039 -0.0742
vn -0.5254 0.6030 0.6003
vn -0.6299 0.6083 0.4829
vn 0.6880 0.7092 0.1541
vn 0.7885 0.2916 -0.5415
vn -0.1661 -0.0499 0.9848
usemtl (null)
s off
f 4//1 3//1 2//1 1//1
f 15//2 18//2 20//2 19//2 16//2 17//2
f 20//3 8//3 9//3 10//3 11//3 12//3 14//3 13//3 19//3
f 10//4 9//4 2//4 3//4
f 17//5 7//5 4//5 1//5 15//5
f 19//6 13//6 16//6
f 10//7 3//7 4//7 7//7 6//7 11//7
f 5//8 14//8 12//8
f 5//9 12//9 11//9 6//9
f 20//10 18//10 8//10
f 18//11 15//11 1//11 2//11 9//11 8//11
f 5//12 6//12 7//12 17//12 16//12 13//12 14//12
