# Blender v2.79 (sub 0) OBJ File: 'rockpack.blend'
# www.blender.org
mtllib rock5.mtl
o Icosphere
v 7.172471 0.206222 -14.494778
v 7.337673 0.257007 -14.347266
v 7.105601 0.257037 -14.216628
v 7.001215 0.247784 -14.512733
v 7.129648 0.239197 -14.898026
v 7.284593 0.230515 -14.735462
v 7.286605 0.514814 -14.139716
v 6.878249 0.535780 -14.331283
v 6.889977 0.460549 -14.758278
v 7.296710 0.408407 -14.880776
v 7.517622 0.523634 -14.540512
v 7.172471 0.622592 -14.506228
v 7.151127 0.232423 -14.342830
v 7.229359 0.221224 -14.411398
v 7.239934 0.251743 -14.245673
v 7.322844 0.241141 -14.509324
v 7.205146 0.212779 -14.618976
v 7.120699 0.215953 -14.509680
v 7.031326 0.244750 -14.350909
v 7.163742 0.216315 -14.697113
v 7.081749 0.224882 -14.721069
v 7.209017 0.234987 -14.870482
v 7.455458 0.353531 -14.427519
v 7.464345 0.305406 -14.660038
v 7.172471 0.309737 -14.082716
v 7.353430 0.366541 -14.217827
v 6.889483 0.353531 -14.427519
v 6.991511 0.366541 -14.217827
v 6.989750 0.320332 -14.909231
v 6.880597 0.305406 -14.660038
v 7.355191 0.320332 -14.909231
v 7.172471 0.301394 -15.015161
v 7.464244 0.568520 -14.335257
v 7.051966 0.548581 -14.153070
v 6.818686 0.555610 -14.542699
v 7.056415 0.427927 -14.855078
v 7.455617 0.480339 -14.751697
v 7.247208 0.662655 -14.305872
v 7.405287 0.617447 -14.532591
v 6.972337 0.643480 -14.398089
v 6.990712 0.585396 -14.647946
v 7.244637 0.538697 -14.709328
vn 0.0090 -0.9852 0.1711
vn 0.2761 -0.9587 0.0686
vn -0.2206 -0.9659 0.1356
vn -0.1730 -0.9840 -0.0416
vn 0.0095 -0.9987 -0.0502
vn 0.6405 -0.7678 0.0166
vn 0.0386 -0.9363 0.3492
vn -0.6402 -0.7610 0.1049
vn -0.4797 -0.8546 -0.1990
vn 0.4311 -0.8610 -0.2699
vn 0.7278 -0.5646 0.3892
vn -0.5888 -0.6076 0.5331
vn -0.5978 -0.7802 0.1843
vn -0.3899 -0.7467 -0.5390
vn 0.4606 -0.8509 -0.2527
vn 0.3927 0.7313 0.5576
vn -0.5154 0.7293 0.4500
vn -0.4261 0.7673 -0.4793
vn -0.0000 0.7962 -0.6051
vn 0.5926 0.7370 -0.3251
vn -0.0237 0.9210 -0.3889
vn 0.1351 0.8536 -0.5031
vn 0.1066 0.8070 -0.5809
vn 0.0856 0.9312 -0.3542
vn 0.0001 0.7961 -0.6052
vn -0.2235 0.7405 -0.6338
vn -0.0215 0.9735 -0.2279
vn -0.3047 0.9225 -0.2369
vn -0.6471 0.7203 0.2499
vn -0.0030 0.9808 -0.1950
vn -0.1995 0.8902 0.4096
vn 0.0712 0.7535 0.6536
vn -0.0005 0.9806 -0.1959
vn 0.4075 0.9073 0.1032
vn 0.6409 0.7676 -0.0012
vn 0.9604 -0.0902 -0.2635
vn 0.8994 -0.1668 -0.4040
vn 0.3926 0.5083 -0.7665
vn -0.0028 0.7835 -0.6214
vn -0.3594 0.5876 -0.7250
vn -0.3229 0.5775 -0.7498
vn -0.9571 -0.1114 -0.2674
vn -0.9551 -0.2807 0.0946
vn -0.9494 -0.1903 0.2496
vn -0.7157 -0.0108 0.6984
vn -0.6119 -0.0768 0.7872
vn -0.0151 0.2755 0.9612
vn 0.7425 -0.0181 0.6696
vn 0.8710 -0.2234 0.4376
vn 0.9464 -0.1593 0.2809
vn 0.3920 0.5081 -0.7670
vn 0.3524 -0.8136 -0.4625
vn 0.1041 -0.8937 -0.4365
vn -0.8927 -0.2013 -0.4031
vn -0.4222 -0.8749 -0.2374
vn -0.3834 -0.9224 -0.0468
vn -0.8558 -0.2819 0.4339
vn -0.6830 -0.6290 0.3713
vn -0.6337 -0.6557 0.4105
vn 0.6190 -0.1292 0.7747
vn 0.5658 -0.6745 0.4743
vn 0.5534 -0.6678 0.4978
vn 0.9537 -0.2851 0.0955
vn 0.5650 -0.8034 0.1879
vn 0.3928 -0.9193 -0.0232
vn 0.0951 -0.9917 -0.0861
vn 0.0784 -0.9932 -0.0865
vn -0.0143 -0.9937 -0.1108
vn -0.0743 -0.9922 -0.1004
vn -0.0969 -0.9950 -0.0242
vn -0.2576 -0.9662 0.0066
vn -0.2580 -0.9657 0.0299
vn -0.1095 -0.9870 0.1174
vn -0.1113 -0.9822 0.1514
vn 0.2279 -0.9737 0.0072
vn 0.2221 -0.9749 0.0138
vn 0.2390 -0.9709 0.0116
vn 0.0029 -0.9813 0.1924
vn 0.0170 -0.9835 0.1800
vn 0.2212 -0.9615 0.1630
usemtl (null)
s off
f 1//1 14//1 13//1
f 2//2 14//2 16//2
f 1//3 13//3 18//3
f 1//4 18//4 20//4
f 1//5 20//5 17//5
f 2//6 16//6 23//6
f 3//7 15//7 25//7
f 4//8 19//8 27//8
f 5//9 21//9 29//9
f 6//10 22//10 31//10
f 2//11 23//11 26//11
f 3//12 25//12 28//12
f 4//13 27//13 30//13
f 5//14 29//14 32//14
f 6//15 31//15 24//15
f 7//16 33//16 38//16
f 8//17 34//17 40//17
f 9//18 35//18 41//18
f 10//19 36//19 42//19
f 11//20 37//20 39//20
f 39//21 42//21 12//21
f 39//22 37//22 42//22
f 37//23 10//23 42//23
f 42//24 41//24 12//24
f 42//25 36//25 41//25
f 36//26 9//26 41//26
f 41//27 40//27 12//27
f 41//28 35//28 40//28
f 35//29 8//29 40//29
f 40//30 38//30 12//30
f 40//31 34//31 38//31
f 34//32 7//32 38//32
f 38//33 39//33 12//33
f 38//34 33//34 39//34
f 33//35 11//35 39//35
f 24//36 37//36 11//36
f 24//37 31//37 37//37
f 31//38 10//38 37//38
f 32//39 36//39 10//39
f 32//40 29//40 36//40
f 29//41 9//41 36//41
f 30//42 35//42 9//42
f 30//43 27//43 35//43
f 27//44 8//44 35//44
f 28//45 34//45 8//45
f 28//46 25//46 34//46
f 25//47 7//47 34//47
f 26//48 33//48 7//48
f 26//49 23//49 33//49
f 23//50 11//50 33//50
f 31//51 32//51 10//51
f 31//52 22//52 32//52
f 22//53 5//53 32//53
f 29//54 30//54 9//54
f 29//55 21//55 30//55
f 21//56 4//56 30//56
f 27//57 28//57 8//57
f 27//58 19//58 28//58
f 19//59 3//59 28//59
f 25//60 26//60 7//60
f 25//61 15//61 26//61
f 15//62 2//62 26//62
f 23//63 24//63 11//63
f 23//64 16//64 24//64
f 16//65 6//65 24//65
f 17//66 22//66 6//66
f 17//67 20//67 22//67
f 20//68 5//68 22//68
f 20//69 21//69 5//69
f 20//70 18//70 21//70
f 18//71 4//71 21//71
f 18//72 19//72 4//72
f 18//73 13//73 19//73
f 13//74 3//74 19//74
f 16//75 17//75 6//75
f 16//76 14//76 17//76
f 14//77 1//77 17//77
f 13//78 15//78 3//78
f 13//79 14//79 15//79
f 14//80 2//80 15//80
